<svg xmlns="http://www.w3.org/2000/svg" viewBox="0 0 1278.6 305.1"><defs><style>.cls-1{stroke:#000;stroke-miterlimit:10;stroke-width:30px;}</style></defs><g id="Layer_2" data-name="Layer 2"><g id="Layer_1-2" data-name="Layer 1"><path class="cls-1" d="M63.53,128.1H233.92V18.73h48.53V286.37H233.92V177H63.53V286.37H15V18.73H63.53Z"/><path class="cls-1" d="M620.07,178.12a117.68,117.68,0,0,1-8.39,45A104.72,104.72,0,0,1,553,281.8a117.26,117.26,0,0,1-44.51,8.3h-65.7a118,118,0,0,1-44.61-8.3,105.52,105.52,0,0,1-35.46-23.24,107.75,107.75,0,0,1-23.42-35.46,116.58,116.58,0,0,1-8.49-45V127a116.76,116.76,0,0,1,8.49-44.88,104.95,104.95,0,0,1,58.88-58.7A116.7,116.7,0,0,1,442.77,15h65.7A116,116,0,0,1,553,23.4a107.72,107.72,0,0,1,35.37,23.23A105.54,105.54,0,0,1,611.68,82.1,117.86,117.86,0,0,1,620.07,127ZM571.55,127A70.93,70.93,0,0,0,567,101,56.32,56.32,0,0,0,534.13,68.1a69.71,69.71,0,0,0-25.66-4.57h-65.7a70.24,70.24,0,0,0-25.85,4.57A58.48,58.48,0,0,0,396.86,81a56.66,56.66,0,0,0-13,20,70.72,70.72,0,0,0-4.58,26v51.14a70.81,70.81,0,0,0,4.58,26,56.84,56.84,0,0,0,13,20A58.45,58.45,0,0,0,416.92,237a70.24,70.24,0,0,0,25.85,4.58h65.32A70.2,70.2,0,0,0,533.94,237,58.5,58.5,0,0,0,554,224.13a57.12,57.12,0,0,0,13-20,71,71,0,0,0,4.57-26Z"/><path class="cls-1" d="M948.93,178.12a117.68,117.68,0,0,1-8.4,45,104.72,104.72,0,0,1-58.7,58.7,117.22,117.22,0,0,1-44.51,8.3h-65.7a117.91,117.91,0,0,1-44.6-8.3,105.32,105.32,0,0,1-35.46-23.24,107.62,107.62,0,0,1-23.43-35.46,116.58,116.58,0,0,1-8.49-45V127a116.76,116.76,0,0,1,8.49-44.88A105,105,0,0,1,727,23.4a116.61,116.61,0,0,1,44.6-8.4h65.7a115.93,115.93,0,0,1,44.51,8.4A107.61,107.61,0,0,1,917.2,46.63,105.54,105.54,0,0,1,940.53,82.1a117.86,117.86,0,0,1,8.4,44.88ZM900.4,127a70.72,70.72,0,0,0-4.57-26A56.32,56.32,0,0,0,863,68.1a69.71,69.71,0,0,0-25.66-4.57h-65.7a70.28,70.28,0,0,0-25.85,4.57A58.57,58.57,0,0,0,725.71,81a56.8,56.8,0,0,0-13,20,70.72,70.72,0,0,0-4.57,26v51.14a70.81,70.81,0,0,0,4.57,26,57,57,0,0,0,13,20A58.55,58.55,0,0,0,745.77,237a70.28,70.28,0,0,0,25.85,4.58H837A70.19,70.19,0,0,0,862.79,237a58.5,58.5,0,0,0,20.07-12.87,57,57,0,0,0,13-20,70.81,70.81,0,0,0,4.57-26Z"/><path class="cls-1" d="M1263.6,130.71a98.8,98.8,0,0,1-4.11,29.68,83.71,83.71,0,0,1-11.1,23.05,78.31,78.31,0,0,1-16.15,17.08,94,94,0,0,1-19.13,11.57,95.62,95.62,0,0,1-20.15,6.53,96.89,96.89,0,0,1-19.13,2H1064.08V172.15h109.75a56.43,56.43,0,0,0,16.89-3.83,40.48,40.48,0,0,0,13-8.3,36.46,36.46,0,0,0,8.4-12.6,44.4,44.4,0,0,0,3-16.71v-22a64,64,0,0,0-3.92-16.8A39.75,39.75,0,0,0,1203,78.83a36.36,36.36,0,0,0-12.41-8.49,42.66,42.66,0,0,0-16.79-3.08H1064.46q-9.7,0-14.75,5t-5,14.55V286.37H996.15V86.85q0-18.66,6.81-31.72a64.09,64.09,0,0,1,17-21.09,67.12,67.12,0,0,1,22.12-11.67,76.17,76.17,0,0,1,22-3.64h109.75a96.14,96.14,0,0,1,29.48,4.2,85.18,85.18,0,0,1,23,11.2,76.7,76.7,0,0,1,17,16.14,100.53,100.53,0,0,1,11.57,19.13,92.16,92.16,0,0,1,6.62,20.16,96.86,96.86,0,0,1,2.06,19.13Z"/></g></g></svg>